<svg xmlns="http://www.w3.org/2000/svg" width="14" height="12" viewBox="0 0 14 12"><g transform="translate(-2.25 -5.625)"><path d="M15.569,14.625h-.012a.721.721,0,0,0-.681.753.073.073,0,0,1-.069.076H3.694a.073.073,0,0,1-.069-.076.721.721,0,0,0-.681-.753H2.931a.721.721,0,0,0-.681.753v6.228a.721.721,0,0,0,.681.753h.013a.721.721,0,0,0,.681-.753v-.214a.132.132,0,0,1,.125-.138h11a.132.132,0,0,1,.125.138v.214a.721.721,0,0,0,.681.753h.012a.721.721,0,0,0,.681-.753V15.378A.721.721,0,0,0,15.569,14.625Z" transform="translate(0 -4.734)" fill="#fff"/><path d="M5.594,10.251h.7a.132.132,0,0,0,.125-.138V9.664a.53.53,0,0,1,.5-.552H9.966a.53.53,0,0,1,.5.552v.449a.132.132,0,0,0,.125.138h.75a.132.132,0,0,0,.125-.138V9.664a.53.53,0,0,1,.5-.552H15.01a.53.53,0,0,1,.5.552v.449a.132.132,0,0,0,.125.138h.7a.265.265,0,0,0,.25-.276V6.73a1.059,1.059,0,0,0-1-1.1H6.343a1.059,1.059,0,0,0-1,1.1V9.975A.265.265,0,0,0,5.594,10.251Z" transform="translate(-1.715 0)" fill="#fff"/></g></svg>